<?xml version="1.0" encoding="utf-8"?>
<!-- Generator: Adobe Illustrator 26.3.1, SVG Export Plug-In . SVG Version: 6.00 Build 0)  -->
<svg version="1.1" id="Livello_1" xmlns="http://www.w3.org/2000/svg" xmlns:xlink="http://www.w3.org/1999/xlink" x="0px" y="0px"
	 viewBox="0 0 65.8 78.2" style="enable-background:new 0 0 65.8 78.2;" xml:space="preserve">
<style type="text/css">
	.st0{fill:#f9a14d;}
</style>
<path class="st0" d="M21.7,34.7h-11c-1.7,0-3.2-1.5-3.2-3.2V8c0-1.8,1.5-3.2,3.2-3.2C12.6,4.7,14,6.2,14,8v20.3h7.7
	c1.8,0,3.2,1.5,3.2,3.2C25,33.3,23.5,34.7,21.7,34.7z"/>
<path class="st0" d="M59,19.7C59,28.2,52.2,35,43.8,35c-8.4,0-15.3-6.8-15.3-15.3c0-8.4,6.9-15.3,15.3-15.3
	C52.2,4.5,59,11.3,59,19.7z"/>
<path class="st0" d="M26,68.9c-1.4,0.9-3.4,0.6-4.4-1.1l-5.8-9.9h-1.5v8.3c0,1.8-1.5,3.3-3.3,3.3c-1.7,0-3.2-1.5-3.2-3.3V42.3
	c0-1.8,1.5-3.3,3.2-3.3h7.2c5.2,0,9.3,4.2,9.3,9.4c0,3.6-1.9,6.7-4.9,8.3l4.5,7.7C28.1,66,27.5,68,26,68.9z"/>
<path class="st0" d="M33.1,69.4c-1.4,0-2.6-1.1-2.6-2.5c0-0.3,0-0.6,0.2-0.9l10.7-25.4c0.3-0.6,1-1.6,2.4-1.6c1.4,0,2.1,1,2.4,1.6
	L56.8,66c0.1,0.3,0.2,0.7,0.2,0.9c0,1.4-1.2,2.5-2.6,2.5"/>
</svg>
